<svg width="0" height="0" class="hidden">
  <symbol xmlns="http://www.w3.org/2000/svg" viewBox="0 0 24 24" id="friends">
    <path d="M20.906 18.094h-1.875v-1.875a.188.188 0 00-.187-.188h-1.125a.188.188 0 00-.188.188v1.875h-1.875a.188.188 0 00-.187.187v1.125c0 .103.084.188.187.188h1.875v1.875c0 .103.085.187.188.187h1.125a.188.188 0 00.187-.187v-1.875h1.875a.188.188 0 00.188-.188v-1.125a.188.188 0 00-.188-.187zM8.754 11.68a5.965 5.965 0 01.068-1.709.189.189 0 00-.106-.206 2.962 2.962 0 01-.865-.588 2.99 2.99 0 01-.907-2.236 2.985 2.985 0 01.851-2.006 2.984 2.984 0 012.185-.907 2.996 2.996 0 012.493 1.378.187.187 0 00.218.075 5.814 5.814 0 011.296-.29.188.188 0 00.148-.272 4.696 4.696 0 00-4.118-2.576c-2.597-.04-4.762 2.09-4.762 4.687 0 1.472.677 2.785 1.739 3.645a7.046 7.046 0 00-2.028 1.415 6.97 6.97 0 00-2.058 4.782.188.188 0 00.188.192H4.41c.1 0 .185-.08.187-.18a5.297 5.297 0 011.564-3.598 5.29 5.29 0 012.453-1.4.192.192 0 00.139-.206zm10.558-.618a4.69 4.69 0 00-4.615-4.688c-2.596-.04-4.76 2.09-4.76 4.688 0 1.471.68 2.784 1.74 3.644a7.056 7.056 0 00-2.026 1.416A6.97 6.97 0 007.594 20.9a.188.188 0 00.187.193h1.313c.1 0 .185-.08.187-.18a5.297 5.297 0 011.563-3.598 5.307 5.307 0 013.78-1.566 4.688 4.688 0 004.688-4.688zm-2.566 2.12a2.978 2.978 0 01-2.121.88 2.978 2.978 0 01-2.121-.88 2.983 2.983 0 01-.88-2.151 3.004 3.004 0 012.97-2.97 3.017 3.017 0 012.133.858c.581.57.9 1.332.9 2.143a2.99 2.99 0 01-.881 2.12z"
    ></path>
  </symbol>

  <symbol  xmlns="http://www.w3.org/2000/svg" viewBox="0 0 24 24" id="icons">
    <path d="M20.906 18.094h-1.875v-1.875a.188.188 0 00-.187-.188h-1.125a.188.188 0 00-.188.188v1.875h-1.875a.188.188 0 00-.187.187v1.125c0 .103.084.188.187.188h1.875v1.875c0 .103.085.187.188.187h1.125a.188.188 0 00.187-.187v-1.875h1.875a.188.188 0 00.188-.188v-1.125a.188.188 0 00-.188-.187zM8.754 11.68a5.965 5.965 0 01.068-1.709.189.189 0 00-.106-.206 2.962 2.962 0 01-.865-.588 2.99 2.99 0 01-.907-2.236 2.985 2.985 0 01.851-2.006 2.984 2.984 0 012.185-.907 2.996 2.996 0 012.493 1.378.187.187 0 00.218.075 5.814 5.814 0 011.296-.29.188.188 0 00.148-.272 4.696 4.696 0 00-4.118-2.576c-2.597-.04-4.762 2.09-4.762 4.687 0 1.472.677 2.785 1.739 3.645a7.046 7.046 0 00-2.028 1.415 6.97 6.97 0 00-2.058 4.782.188.188 0 00.188.192H4.41c.1 0 .185-.08.187-.18a5.297 5.297 0 011.564-3.598 5.29 5.29 0 012.453-1.4.192.192 0 00.139-.206zm10.558-.618a4.69 4.69 0 00-4.615-4.688c-2.596-.04-4.76 2.09-4.76 4.688 0 1.471.68 2.784 1.74 3.644a7.056 7.056 0 00-2.026 1.416A6.97 6.97 0 007.594 20.9a.188.188 0 00.187.193h1.313c.1 0 .185-.08.187-.18a5.297 5.297 0 011.563-3.598 5.307 5.307 0 013.78-1.566 4.688 4.688 0 004.688-4.688zm-2.566 2.12a2.978 2.978 0 01-2.121.88 2.978 2.978 0 01-2.121-.88 2.983 2.983 0 01-.88-2.151 3.004 3.004 0 012.97-2.97 3.017 3.017 0 012.133.858c.581.57.9 1.332.9 2.143a2.99 2.99 0 01-.881 2.12z" 
    ></path>
  </symbol>

  <symbol xmlns="http://www.w3.org/2000/svg" viewBox="0 0 22 22" id="info">
    <path d="M11 .5C5.202.5.5 5.202.5 11S5.202 21.5 11 21.5 21.5 16.798 21.5 11 16.798.5 11 .5zm0 19.219A8.72 8.72 0 012.281 11 8.72 8.72 0 0111 2.281 8.72 8.72 0 0119.719 11 8.72 8.72 0 0111 19.719z" 
    ></path>
    <path d="M9.875 6.875a1.125 1.125 0 102.25 0 1.125 1.125 0 00-2.25 0zM11.563 9.5h-1.126a.188.188 0 00-.187.188v6.374c0 .104.084.188.188.188h1.124a.188.188 0 00.188-.188V9.688a.188.188 0 00-.188-.187z" 
    ></path>
  </symbol>

  <symbol xmlns="http://www.w3.org/2000/svg" viewBox="0 0 24 24" id="message">
    <path d="M10.875 12a1.125 1.125 0 102.25 0 1.125 1.125 0 00-2.25 0zm4.688 0a1.125 1.125 0 102.25 0 1.125 1.125 0 00-2.25 0zm-9.375 0a1.125 1.125 0 102.25 0 1.125 1.125 0 00-2.25 0zm15.497-4.069A10.503 10.503 0 0012 1.5h-.047A10.475 10.475 0 001.5 12.05a10.533 10.533 0 001.125 4.684v3.563a1.078 1.078 0 001.078 1.078h3.565a10.533 10.533 0 004.685 1.125h.05c1.403 0 2.765-.272 4.047-.804a10.417 10.417 0 003.347-2.231 10.475 10.475 0 003.103-7.418 10.46 10.46 0 00-.815-4.116zm-3.542 10.266A8.673 8.673 0 0112 20.719h-.04a8.75 8.75 0 01-4.057-1.02l-.197-.105h-3.3v-3.3l-.105-.197a8.75 8.75 0 01-1.02-4.057 8.665 8.665 0 012.522-6.183 8.653 8.653 0 016.16-2.576h.04c1.171 0 2.308.228 3.38.678a8.664 8.664 0 012.788 1.875 8.683 8.683 0 012.552 6.206 8.685 8.685 0 01-2.58 6.157z" 
    ></path>
  </symbol>

<symbol xmlns="http://www.w3.org/2000/svg" viewBox="0 0 24 24" id="bells">
    <path d="M19.125 18h-.563v-7.969a6.561 6.561 0 00-5.625-6.494v-.912a.937.937 0 10-1.874 0v.912a6.561 6.561 0 00-5.626 6.494V18h-.562a.75.75 0 00-.75.75v.75c0 .103.084.188.188.188h5.062A2.627 2.627 0 0012 22.313a2.627 2.627 0 002.625-2.625h5.063a.188.188 0 00.187-.188v-.75a.75.75 0 00-.75-.75zM12 20.813a1.125 1.125 0 01-1.125-1.125h2.25c0 .62-.504 1.125-1.125 1.125zM7.125 18v-7.969a4.84 4.84 0 011.427-3.447A4.841 4.841 0 0112 5.156c1.303 0 2.527.506 3.448 1.428a4.842 4.842 0 011.427 3.447V18h-9.75z" 
    ></path>
</symbol>

<symbol xmlns="http://www.w3.org/2000/svg" viewBox="0 0 12 8" id="dropdown">
    <path d="M11.13.688H.869c-.307 0-.48.325-.289.546l5.132 5.95c.146.17.43.17.578 0l5.13-5.95c.192-.222.02-.546-.288-.546z" ></path>
</symbol>

  <symbol fill="none" xmlns="http://www.w3.org/2000/svg" viewBox="0 0 20 20" id="navIcon">
    <path d="M18.625.625H1.375a.75.75 0 00-.75.75v17.25c0 .415.335.75.75.75h17.25a.75.75 0 00.75-.75V1.375a.75.75 0 00-.75-.75zm-.938 17.063H2.313V2.313h15.376v15.374z" fill="#1890FF"></path>
    <path d="M2.313 17.688h15.374V2.313H2.313v15.374zm7.03-11.625c0-.104.085-.188.188-.188h4.313c.103 0 .187.084.187.188v1.125a.188.188 0 01-.187.187H9.53a.188.188 0 01-.187-.188V6.063zm0 3.375c0-.104.085-.188.188-.188h4.313c.103 0 .187.084.187.188v1.124a.188.188 0 01-.187.188H9.53a.188.188 0 01-.187-.188V9.438zm0 3.374c0-.103.085-.187.188-.187h4.313c.103 0 .187.084.187.188v1.124a.188.188 0 01-.187.188H9.53a.188.188 0 01-.187-.188v-1.124zM6.907 5.689a.937.937 0 110 1.874.937.937 0 010-1.875zm0 3.375a.937.937 0 110 1.874.937.937 0 010-1.874zm0 3.374a.937.937 0 110 1.875.937.937 0 010-1.874z" fill="#E6F7FF"></path>
    <path d="M5.969 13.375a.937.937 0 101.875 0 .937.937 0 00-1.875 0zm0-3.375a.937.937 0 101.875 0 .937.937 0 00-1.875 0zm0-3.375a.937.937 0 101.875 0 .937.937 0 00-1.875 0zm3.562 7.5h4.313a.188.188 0 00.187-.188v-1.124a.188.188 0 00-.187-.188H9.53a.188.188 0 00-.187.188v1.124c0 .104.084.188.187.188zm0-3.375h4.313a.188.188 0 00.187-.188V9.438a.188.188 0 00-.187-.188H9.53a.188.188 0 00-.187.188v1.124c0 .104.084.188.187.188zm0-3.375h4.313a.188.188 0 00.187-.188V6.063a.188.188 0 00-.187-.187H9.53a.188.188 0 00-.187.188v1.125c0 .103.084.187.187.187z" fill="#1890FF"></path>
  </symbol>

  <symbol fill="none" xmlns="http://www.w3.org/2000/svg" viewBox="0 0 22 22" id="navMes">
    <path d="M17.172 4.834a8.663 8.663 0 00-2.79-1.875 8.676 8.676 0 00-3.379-.678h-.04a8.653 8.653 0 00-6.16 2.576 8.665 8.665 0 00-2.52 6.183 8.75 8.75 0 001.019 4.057l.105.197v3.3h3.3l.197.105a8.75 8.75 0 004.057 1.02h.04c2.32 0 4.5-.896 6.143-2.522a8.685 8.685 0 002.58-6.157 8.683 8.683 0 00-2.552-6.206zM6.313 12.125a1.125 1.125 0 010-2.25 1.125 1.125 0 010 2.25zm4.688 0a1.125 1.125 0 010-2.25 1.125 1.125 0 010 2.25zm4.687 0a1.125 1.125 0 010-2.25 1.125 1.125 0 010 2.25z" fill="#E6F7FF"></path>
    <path d="M14.563 11a1.125 1.125 0 102.25 0 1.125 1.125 0 00-2.25 0zm-9.376 0a1.125 1.125 0 102.25 0 1.125 1.125 0 00-2.25 0z" fill="#1890FF"></path>
    <path d="M20.685 6.931A10.503 10.503 0 0011 .5h-.047A10.475 10.475 0 00.5 11.05a10.533 10.533 0 001.125 4.684v3.563a1.078 1.078 0 001.078 1.078h3.565a10.533 10.533 0 004.685 1.125h.05c1.403 0 2.765-.272 4.047-.804a10.417 10.417 0 003.347-2.231 10.475 10.475 0 003.103-7.418 10.46 10.46 0 00-.815-4.116zm-3.542 10.266A8.673 8.673 0 0111 19.719h-.04a8.75 8.75 0 01-4.057-1.02l-.197-.105h-3.3v-3.3l-.105-.197a8.75 8.75 0 01-1.02-4.057 8.665 8.665 0 012.522-6.183 8.653 8.653 0 016.16-2.576h.04c1.171 0 2.308.228 3.38.678a8.664 8.664 0 012.788 1.875 8.683 8.683 0 012.552 6.206 8.685 8.685 0 01-2.58 6.157z" fill="#1890FF"></path>
    <path d="M9.875 11a1.125 1.125 0 102.25 0 1.125 1.125 0 00-2.25 0z" fill="#1890FF"></path>
  </symbol>

  <symbol fill="none" xmlns="http://www.w3.org/2000/svg" viewBox="0 0 20 20" id="navMarketPlace">
    <path d="M17.676 6.063H2.324c-.007 0-.011.004-.011.011v2.138c0 1.401 1.148 2.538 2.561 2.538a2.57 2.57 0 002.23-1.282.387.387 0 01.67 0A2.563 2.563 0 0010 10.75a2.56 2.56 0 002.229-1.287.378.378 0 01.326-.19h.014c.136 0 .258.073.325.19a2.567 2.567 0 002.232 1.287c1.413 0 2.562-1.137 2.562-2.538V6.074c0-.007-.005-.011-.012-.011z" fill="#E6F7FF"></path>
    <path d="M18.672 4.377V1.375a.75.75 0 00-.75-.75H2.08a.75.75 0 00-.75.75v3.002a.75.75 0 00-.704.748v3.087a4.148 4.148 0 00.338 1.65c.1.239.225.464.366.677v8.086c0 .413.335.75.75.75h15.843a.75.75 0 00.75-.75v-8.086a4.19 4.19 0 00.703-2.327V5.125a.75.75 0 00-.703-.748zM3.016 2.313h13.969v2.062H3.016V2.312zM11.5 17.69h-3v-2.44h3v2.44zm5.494 0H13V14.5a.75.75 0 00-.75-.75h-4.5a.75.75 0 00-.75.75v3.19H3.016v-5.677a4.225 4.225 0 001.86.424 4.283 4.283 0 002.557-.848.015.015 0 01.015 0c.28.21.584.383.907.518a4.23 4.23 0 001.65.33 4.238 4.238 0 002.557-.848.015.015 0 01.014 0 4.247 4.247 0 002.557.848 4.233 4.233 0 001.861-.424v5.677zm.694-9.478c0 1.401-1.149 2.538-2.562 2.538-.956 0-1.79-.518-2.231-1.287a.375.375 0 00-.326-.19h-.014a.378.378 0 00-.326.19A2.56 2.56 0 0110 10.75a2.563 2.563 0 01-2.226-1.282.387.387 0 00-.67 0 2.57 2.57 0 01-2.23 1.282c-1.413 0-2.561-1.137-2.561-2.538V6.074c0-.007.005-.011.012-.011h15.351c.007 0 .012.004.012.011v2.138z" fill="#1890FF"></path>
  </symbol>

  <symbol fill="none" xmlns="http://www.w3.org/2000/svg" viewBox="0 0 20 20" id="shortCutsIcon">
    <path d="M5.5 9.25a4.29 4.29 0 001.263 3.05 4.28 4.28 0 003.05 1.262h.374a4.284 4.284 0 003.05-1.263A4.28 4.28 0 0014.5 9.25V2.312h-9V9.25zm-3.188-3zm8.532 8.965zm-6.98-5.168z" fill="#E6F7FF"></path>
    <path d="M18.344 1.75h-2.157V.812A.188.188 0 0016 .625H4a.188.188 0 00-.188.188v.937H1.656A1.031 1.031 0 00.625 2.781V6.25a3.85 3.85 0 003.24 3.797 6.007 6.007 0 005.291 5.168v2.465H4.562a.75.75 0 00-.75.75v.758c0 .103.085.187.188.187h12a.188.188 0 00.188-.188v-.757a.75.75 0 00-.75-.75h-4.594v-2.465a6.007 6.007 0 005.292-5.168 3.85 3.85 0 003.239-3.797V2.781a1.032 1.032 0 00-1.031-1.031zM3.812 8.303a2.156 2.156 0 01-1.5-2.053V3.437h1.5v4.866zM14.5 9.25a4.28 4.28 0 01-1.263 3.05 4.283 4.283 0 01-3.05 1.262h-.374a4.28 4.28 0 01-3.05-1.263A4.283 4.283 0 015.5 9.25V2.312h9V9.25zm3.188-3c0 .96-.631 1.777-1.5 2.053V3.437h1.5V6.25z" fill="#1890FF"></path>
  </symbol>

  <symbol fill="none" xmlns="http://www.w3.org/2000/svg" viewBox="0 0 20 20" id="pageIcon">
    <path d="M2.313 3.438h8.624v7.874H2.313V3.439z" fill="#E6F7FF"></path>
    <path d="M12.625 12.813a.188.188 0 01-.188.187H9.813v1.71h7.874V6.837h-5.062v5.976z" fill="#E6F7FF"></path>
    <path d="M18.625 5.148h-6V2.5a.75.75 0 00-.75-.75H2.312V.812a.188.188 0 00-.187-.187H.812a.188.188 0 00-.187.188v18.375c0 .103.084.187.188.187h1.312a.188.188 0 00.188-.188V13h5.812v2.648c0 .415.335.75.75.75h9.75a.75.75 0 00.75-.75v-9.75a.75.75 0 00-.75-.75zM2.312 11.313V3.436h8.626v7.876H2.312zm15.376 3.398H9.813V13h2.624a.188.188 0 00.188-.188V6.837h5.063v7.875z" fill="#1890FF"></path>
  </symbol>

  <symbol fill="none" xmlns="http://www.w3.org/2000/svg" viewBox="0 0 20 20" id="shortCutsIcon">
    <path d="M5.5 9.25a4.29 4.29 0 001.263 3.05 4.28 4.28 0 003.05 1.262h.374a4.284 4.284 0 003.05-1.263A4.28 4.28 0 0014.5 9.25V2.312h-9V9.25zm-3.188-3zm8.532 8.965zm-6.98-5.168z" fill="#E6F7FF"></path>
    <path d="M18.344 1.75h-2.157V.812A.188.188 0 0016 .625H4a.188.188 0 00-.188.188v.937H1.656A1.031 1.031 0 00.625 2.781V6.25a3.85 3.85 0 003.24 3.797 6.007 6.007 0 005.291 5.168v2.465H4.562a.75.75 0 00-.75.75v.758c0 .103.085.187.188.187h12a.188.188 0 00.188-.188v-.757a.75.75 0 00-.75-.75h-4.594v-2.465a6.007 6.007 0 005.292-5.168 3.85 3.85 0 003.239-3.797V2.781a1.032 1.032 0 00-1.031-1.031zM3.812 8.303a2.156 2.156 0 01-1.5-2.053V3.437h1.5v4.866zM14.5 9.25a4.28 4.28 0 01-1.263 3.05 4.283 4.283 0 01-3.05 1.262h-.374a4.28 4.28 0 01-3.05-1.263A4.283 4.283 0 015.5 9.25V2.312h9V9.25zm3.188-3c0 .96-.631 1.777-1.5 2.053V3.437h1.5V6.25z" fill="#1890FF"></path>
  </symbol>

  <symbol fill="none" xmlns="http://www.w3.org/2000/svg" viewBox="0 0 18 22" id="gamesIcon">
    <path d="M3.134 13.564c-.22.342-.398.71-.527 1.092h1.987v-2.561a4.987 4.987 0 00-1.46 1.47zm10.273-1.47v2.562h1.988a4.96 4.96 0 00-1.988-2.562zm-1.5-5.622L9.001 3.027 6.094 6.472v8.184h5.813V6.472zM9.001 9.5a1.125 1.125 0 010-2.25A1.125 1.125 0 019 9.5z" fill="#E6F7FF"></path>
    <path d="M17.25 16.25a6.56 6.56 0 00-3.75-5.927V6.437c0-.354-.124-.696-.354-.966L9.574 1.236a.749.749 0 00-1.148 0L4.854 5.47a1.5 1.5 0 00-.354.966v3.886A6.56 6.56 0 00.75 16.25h3.668a1.81 1.81 0 00-.082.558 2.276 2.276 0 001.512 2.142A3.417 3.417 0 009 21.031a3.41 3.41 0 001.908-.581c.553-.37.982-.888 1.242-1.5.396-.14.746-.388 1.01-.715.324-.404.5-.907.502-1.425 0-.197-.026-.384-.073-.558l3.661-.002zM4.594 14.656H2.606a4.987 4.987 0 011.987-2.562v2.562zm1.5-4.333V6.472L9 3.027l2.906 3.445v8.184H6.094v-4.333zm5.627 7.057a.632.632 0 01-.4.08l-.458-.057-.065.455A1.825 1.825 0 019 19.416c-.898 0-1.671-.67-1.798-1.558l-.065-.457-.457.058a.66.66 0 01-.731-.654c0-.248.138-.454.342-.557h5.42a.619.619 0 01.343.557.665.665 0 01-.333.575zm1.685-2.724v-2.562a4.958 4.958 0 011.988 2.562h-1.988z" fill="#1890FF"></path>
    <path d="M7.875 8.375a1.125 1.125 0 102.25 0 1.125 1.125 0 00-2.25 0z" fill="#1890FF"></path>
  </symbol>

  <symbol fill="none" xmlns="http://www.w3.org/2000/svg" viewBox="0 0 22 22" id="EventIcon">
    <path d="M11.003 3.045L2.331 11.71h2.25v7.634h3.607V14c0-.518.42-.938.938-.938h3.75c.518 0 .937.42.937.938v5.344h3.607V11.71h2.253l-8.128-8.123-.542-.542zm10.184 9.912zm-20.79-.813c.118.71.737 1.254 1.48 1.254h.02a1.52 1.52 0 01-1.5-1.254zm-.02-.246v-.045.045zm.002-.061z" fill="#E6F7FF"></path>
    <path d="M21.288 10.953c0-.002-.002-.002-.002-.005l-.042-.049c-.003-.002-.005-.007-.01-.01l-.051-.055-9.056-9.05-.607-.607a.738.738 0 00-1.041 0L.816 10.836a1.491 1.491 0 00-.375.623l-.014.05-.007.025-.008.028a.363.363 0 00-.009.05c0 .002 0 .007-.002.01a1.29 1.29 0 00-.024.212v.078c0 .011 0 .023.003.035 0 .012 0 .021.002.033l.002.035c0 .014.003.028.005.042l.002.021.007.059v.002a1.52 1.52 0 001.5 1.254h.997v7.638h16.211v-7.633h1.017c.202 0 .396-.04.575-.115a1.49 1.49 0 00.926-1.387c0-.345-.118-.676-.336-.943zm-8.976 8.39H9.687v-4.78h2.625v4.78zm5.107-7.633v7.634h-3.607V14a.937.937 0 00-.938-.938h-3.75a.937.937 0 00-.937.938v5.344H4.58V11.71H2.33L11 3.045l.542.542 8.128 8.123h-2.25z" fill="#1890FF"></path>
  </symbol>

  <symbol fill="none" xmlns="http://www.w3.org/2000/svg" viewBox="0 0 18 20" id="postFriend">
    <path d="M12.898 13.056a4.018 4.018 0 011.907-.478h.003c.07 0 .103-.084.051-.131a8.71 8.71 0 00-2.43-1.542c-.01-.005-.019-.007-.028-.012a5.814 5.814 0 002.402-4.713 5.806 5.806 0 00-5.8-5.813 5.805 5.805 0 00-5.8 5.813 5.81 5.81 0 002.406 4.713c-.01.005-.02.007-.029.012a8.733 8.733 0 00-2.796 1.889 8.751 8.751 0 00-1.884 2.8 8.757 8.757 0 00-.69 3.237.187.187 0 00.188.192h1.404a.19.19 0 00.188-.182 6.993 6.993 0 012.053-4.789 6.958 6.958 0 014.962-2.06 6.95 6.95 0 013.703 1.057.19.19 0 00.19.007zm-3.893-2.845A3.998 3.998 0 016.159 9.03 4.013 4.013 0 014.98 6.18a4.01 4.01 0 011.18-2.85 3.99 3.99 0 012.845-1.182c1.075 0 2.083.42 2.845 1.182a4.013 4.013 0 011.179 2.85c0 1.075-.42 2.088-1.18 2.85a3.998 3.998 0 01-2.844 1.18zm8.62 5.578h-1.969V13.82a.188.188 0 00-.187-.187h-1.313a.188.188 0 00-.187.187v1.97h-1.97a.188.188 0 00-.187.187v1.312a.19.19 0 00.188.188h1.969v1.968c0 .103.084.188.187.188h1.313a.188.188 0 00.187-.188v-1.968h1.969a.188.188 0 00.187-.188v-1.312a.188.188 0 00-.187-.188z" fill="#1890FF"></path>
  </symbol>

  <symbol fill="none" xmlns="http://www.w3.org/2000/svg" viewBox="0 0 22 22" id="postActive">
    <path d="M11 .5C5.202.5.5 5.202.5 11S5.202 21.5 11 21.5 21.5 16.798 21.5 11 16.798.5 11 .5zm0 19.219A8.72 8.72 0 012.281 11 8.72 8.72 0 0111 2.281 8.72 8.72 0 0119.719 11 8.72 8.72 0 0111 19.719z" fill="#1890FF"></path>
    <path d="M11 2.281A8.72 8.72 0 002.281 11 8.72 8.72 0 0011 19.719 8.72 8.72 0 0019.719 11 8.72 8.72 0 0011 2.281zM5.75 8.867a1.125 1.125 0 012.25 0 1.125 1.125 0 01-2.25 0zM11 15.242a3.759 3.759 0 01-3.75-3.553.188.188 0 01.188-.197h1.127a.19.19 0 01.19.174 2.252 2.252 0 004.49 0 .19.19 0 01.19-.174h1.127a.188.188 0 01.188.197A3.759 3.759 0 0111 15.242zm4.125-5.25a1.125 1.125 0 010-2.25 1.125 1.125 0 010 2.25z" fill="#E6F7FF"></path>
    <path d="M5.75 8.867a1.125 1.125 0 102.25 0 1.125 1.125 0 00-2.25 0zm8.813 2.625h-1.128a.19.19 0 00-.19.174 2.252 2.252 0 01-4.49 0 .19.19 0 00-.19-.174H7.438a.188.188 0 00-.188.197A3.759 3.759 0 0011 15.242a3.759 3.759 0 003.75-3.553.187.187 0 00-.188-.197zM14 8.867a1.125 1.125 0 102.25 0 1.125 1.125 0 00-2.25 0z" fill="#1890FF"></path>
  </symbol>

  <symbol fill="none" xmlns="http://www.w3.org/2000/svg" viewBox="0 0 22 18" id="postphoto">
    <path d="M20.75.75H1.25a.75.75 0 00-.75.75v15c0 .415.335.75.75.75h19.5a.75.75 0 00.75-.75v-15a.75.75 0 00-.75-.75zm-.938 14.813H2.188v-.936l3.247-3.85 3.518 4.171 5.472-6.487 5.389 6.389v.713zm0-3.043L14.567 6.3a.186.186 0 00-.286 0l-5.33 6.319-3.374-4.001a.186.186 0 00-.286 0l-3.104 3.68v-9.86h17.625V12.52z" fill="#1890FF"></path>
    <path d="M8.952 14.948l-3.518-4.171-3.247 3.85v.935h17.625v-.712l-5.388-6.39-5.472 6.488z" fill="#E6F7FF"></path>
    <path d="M2.188 12.298l3.103-3.68c.075-.09.21-.09.286 0l3.375 4 5.33-6.318a.186.186 0 01.285 0l5.245 6.22V2.438H2.188v9.86zm3.937-8.736a2.062 2.062 0 110 4.125 2.062 2.062 0 010-4.125z" fill="#E6F7FF"></path>
    <path d="M5.469 5.625a.656.656 0 101.312 0 .656.656 0 00-1.312 0z" fill="#E6F7FF"></path>
    <path d="M6.125 7.688a2.062 2.062 0 100-4.125 2.062 2.062 0 000 4.124zm0-2.72a.655.655 0 110 1.313.655.655 0 110-1.312z" fill="#1890FF"></path>
  </symbol>



  <symbol fill="none" xmlns="http://www.w3.org/2000/svg" viewBox="0 0 16 4" id="moreIcon">
    <path d="M.125 1.977a1.313 1.313 0 102.625 0 1.313 1.313 0 00-2.625 0zm6.563 0a1.313 1.313 0 102.625 0 1.313 1.313 0 00-2.626 0zm6.562 0a1.313 1.313 0 102.625 0 1.313 1.313 0 00-2.625 0z" fill="#595959"></path>
  </symbol>


  <symbol fill="none" xmlns="http://www.w3.org/2000/svg" viewBox="0 0 12 14" id="setting">
    <path d="M11.644 8.555l-.896-.766a4.915 4.915 0 000-1.58l.896-.766a.437.437 0 00.127-.481l-.012-.036a6.067 6.067 0 00-1.09-1.885l-.025-.029a.439.439 0 00-.48-.13l-1.111.395A4.818 4.818 0 007.69 2.49l-.215-1.162a.438.438 0 00-.352-.352L7.086.97a6.177 6.177 0 00-2.174 0l-.037.006a.438.438 0 00-.353.352l-.216 1.167a4.81 4.81 0 00-1.353.785l-1.12-.398a.437.437 0 00-.48.13l-.025.029a6.098 6.098 0 00-1.09 1.885l-.012.036a.44.44 0 00.128.481l.906.774a4.81 4.81 0 000 1.561l-.906.774a.438.438 0 00-.128.481l.013.036a6.063 6.063 0 001.09 1.885l.024.029a.438.438 0 00.48.13l1.12-.398c.407.335.862.6 1.353.785l.216 1.167a.438.438 0 00.353.352l.037.006c.719.13 1.455.13 2.174 0l.037-.006a.439.439 0 00.352-.352l.215-1.162a4.783 4.783 0 001.363-.787l1.111.395a.438.438 0 00.48-.13l.025-.029a6.098 6.098 0 001.09-1.885l.012-.036a.436.436 0 00-.127-.478zM9.778 6.37a3.87 3.87 0 010 1.26l-.09.549 1.02.873a5.06 5.06 0 01-.582 1.007l-1.268-.45-.43.353a3.82 3.82 0 01-1.084.626l-.52.195-.246 1.326a5.155 5.155 0 01-1.162 0l-.244-1.329-.517-.198a3.825 3.825 0 01-1.076-.625l-.43-.354-1.276.454a5.168 5.168 0 01-.583-1.006l1.032-.882-.089-.547a3.937 3.937 0 010-1.244l.09-.547L1.29 4.95a5.06 5.06 0 01.583-1.006l1.277.454.429-.354a3.825 3.825 0 011.076-.625l.518-.195.245-1.33a5.161 5.161 0 011.162 0l.244 1.327.521.195a3.84 3.84 0 011.085.627l.429.352 1.269-.45c.232.314.426.651.582 1.007l-1.021.873.089.546zM6 4.457A2.406 2.406 0 106 9.27a2.406 2.406 0 000-4.813zm1.083 3.49A1.526 1.526 0 016 8.394a1.526 1.526 0 01-1.415-.945 1.526 1.526 0 01.332-1.669A1.52 1.52 0 016 5.332c.409 0 .793.159 1.083.449a1.526 1.526 0 01.448 1.083c0 .408-.16.792-.448 1.082z" fill="#8C8C8C"></path>
  </symbol>


  <symbol fill="none" xmlns="http://www.w3.org/2000/svg" viewBox="0 0 14 14" id="likeIcon">
    <path d="M3.266 6.748v6.688l.004-6.688h-.004zm8.409-1.38H6.762l.15-3.1a.555.555 0 00-.557-.58.692.692 0 00-.66.504L4.391 6.92v5.394h6.24a.888.888 0 00.417-1.236l-.217-.397.342-.297a.885.885 0 00.307-.672.88.88 0 00-.108-.427l-.217-.396.342-.297a.886.886 0 00.306-.672.878.878 0 00-.108-.427l-.218-.398.342-.297a.886.886 0 00.306-.672.904.904 0 00-.45-.756z" fill="#E6F7FF"></path>
    <path d="M.75 7.25v5.688a.5.5 0 00.5.5h1.016V6.75H1.25a.5.5 0 00-.5.5zm12.092.09a2.01 2.01 0 00.408-1.215c0-.702-.392-1.367-1.023-1.734a1.058 1.058 0 00-.536-.146H7.942l.094-1.92a1.66 1.66 0 00-.461-1.24A1.662 1.662 0 006.358.562c-.813 0-1.531.546-1.747 1.33L3.27 6.747l-.005 6.688h7.376c.146 0 .285-.028.414-.084a2.009 2.009 0 001.14-2.428 2.01 2.01 0 00.323-1.793 2.011 2.011 0 00.323-1.792zm-1.023-.543l-.342.297.218.398a.887.887 0 01-.198 1.098l-.342.298.217.396a.887.887 0 01-.198 1.098l-.343.298.217.397a.888.888 0 01-.417 1.236h-6.24V6.918l1.304-4.727a.692.692 0 01.66-.504.555.555 0 01.558.581l-.15 3.1h4.912c.278.17.45.458.45.756 0 .258-.11.503-.306.672z" fill="#1890FF"></path>
  </symbol>


  <symbol fill="none" xmlns="http://www.w3.org/2000/svg" viewBox="0 0 20 20" id="likeActive">
    <path d="M18.763 10.51c.394-.52.612-1.158.612-1.822 0-1.052-.588-2.048-1.535-2.604a1.586 1.586 0 00-.804-.218h-5.62l.14-2.88a2.509 2.509 0 00-.691-1.861A2.499 2.499 0 009.039.342c-1.219 0-2.297.82-2.62 1.995L4.405 9.626h-3.03a.75.75 0 00-.75.75v8.531c0 .415.335.75.75.75h14.093c.216 0 .427-.042.621-.127a3.014 3.014 0 001.709-3.642 3.016 3.016 0 00.485-2.688c.394-.52.611-1.158.611-1.821a3.2 3.2 0 00-.13-.87zm-16.45 7.46v-6.657H4.21v6.657H2.312zm14.915-8.274l-.513.445.326.596a1.338 1.338 0 01-.298 1.648l-.513.445.325.595a1.338 1.338 0 01-.298 1.648l-.512.445.325.595a1.332 1.332 0 01-.626 1.854H5.711v-6.729L8.043 2.79a1.034 1.034 0 01.989-.757.833.833 0 01.837.872l-.225 4.65h7.368c.418.255.675.687.675 1.134 0 .387-.168.753-.459 1.008z" fill="#595959"></path>
  </symbol>


  <symbol fill="none" xmlns="http://www.w3.org/2000/svg" viewBox="0 0 18 20" id="share">
    <path d="M14.625 13.563a2.8 2.8 0 00-1.767.625l-4.856-3.513a3.766 3.766 0 000-1.35l4.856-3.513a2.8 2.8 0 001.767.625 2.815 2.815 0 002.813-2.812A2.815 2.815 0 0014.624.812a2.815 2.815 0 00-2.702 3.593L7.31 7.745A3.749 3.749 0 00.562 10a3.749 3.749 0 006.748 2.255l4.613 3.34a2.815 2.815 0 002.702 3.593 2.815 2.815 0 002.813-2.813 2.815 2.815 0 00-2.813-2.813zm0-11.157a1.22 1.22 0 11-.001 2.439 1.22 1.22 0 01.001-2.439zM4.312 12.062A2.066 2.066 0 012.25 10c0-1.137.926-2.063 2.063-2.063 1.136 0 2.062.926 2.062 2.063a2.066 2.066 0 01-2.063 2.063zm10.313 5.532a1.22 1.22 0 11.001-2.439 1.22 1.22 0 01-.001 2.439z" fill="#595959"></path>
  </symbol>

  <symbol xmlns="http://www.w3.org/2000/svg" viewBox="0 0 14 14" id="storiesIcon">
    <path d="M7 0a7 7 0 10.001 14.001A7 7 0 007 0zm0 12.813A5.813 5.813 0 017 1.187a5.813 5.813 0 010 11.626z" ></path>
    <path d="M9.73 8.978l-2.228-1.61V3.5a.125.125 0 00-.125-.125h-.752A.125.125 0 006.5 3.5v4.303c0 .04.019.078.052.102l2.584 1.884c.056.04.134.028.175-.027l.447-.609a.125.125 0 00-.028-.175z"></path>
  </symbol>


</svg>


